<svg width="30" height="30" viewBox="0 0 30 30" fill="none" xmlns="http://www.w3.org/2000/svg">
<g clip-path="url(#clip0_126_196)">
<rect x="0.5784" y="12.3188" width="17.0737" height="17.0738" fill="#7595FD"/>
<path d="M8.33478 23.0265L8.63967 25.7339L10.6153 23.8558L13.9935 14.5872C13.1642 14.3799 12.4325 13.9653 11.8349 13.3921L8.33478 23.0265ZM18.5912 13.3921C17.9936 13.9653 17.2497 14.3799 16.4326 14.5872L19.8108 23.8558L21.7865 25.7339L22.1035 23.0265L18.5912 13.3921V13.3921ZM18.7985 10.6115C19.1644 8.70898 18.0668 7.02599 16.4326 6.44061V5.00154C16.4326 4.33078 15.8838 3.78198 15.2131 3.78198C14.5423 3.78198 13.9935 4.33078 13.9935 5.00154V6.44061C12.5788 6.95282 11.5544 8.29433 11.5544 9.87975C11.5544 12.1237 13.5789 13.9043 15.896 13.4774C17.3351 13.2091 18.5181 12.0506 18.7985 10.6115V10.6115ZM15.2131 11.0993C14.5423 11.0993 13.9935 10.5505 13.9935 9.87975C13.9935 9.209 14.5423 8.6602 15.2131 8.6602C15.8838 8.6602 16.4326 9.209 16.4326 9.87975C16.4326 10.5505 15.8838 11.0993 15.2131 11.0993Z" fill="#292E3D"/>
</g>
<defs>
<clipPath id="clip0_126_196">
<rect width="29.2693" height="29.2693" fill="white" transform="translate(0.5784 0.123291)"/>
</clipPath>
</defs>
</svg>
