<svg width="30" height="30" viewBox="0 0 30 30" fill="none" xmlns="http://www.w3.org/2000/svg">
<g clip-path="url(#clip0_126_184)">
<rect x="0.22171" y="12.7521" width="17.0737" height="17.0738" fill="#7595FD"/>
<path d="M13.6368 7.87379H17.2955L21.3078 3.84927C21.4212 3.73496 21.556 3.64423 21.7047 3.58232C21.8533 3.5204 22.0127 3.48853 22.1737 3.48853C22.3347 3.48853 22.4941 3.5204 22.6427 3.58232C22.7913 3.64423 22.9262 3.73496 23.0396 3.84927L26.186 7.00791C26.4131 7.23641 26.5406 7.54551 26.5406 7.8677C26.5406 8.18988 26.4131 8.49898 26.186 8.72748L23.3932 11.5325H13.6368V13.9716C13.6368 14.295 13.5083 14.6052 13.2796 14.8339C13.0509 15.0626 12.7407 15.1911 12.4172 15.1911C12.0938 15.1911 11.7836 15.0626 11.5549 14.8339C11.3262 14.6052 11.1977 14.295 11.1977 13.9716V10.3129C11.1977 9.66601 11.4547 9.04561 11.9121 8.58819C12.3695 8.13077 12.9899 7.87379 13.6368 7.87379ZM6.31947 13.9716V18.8498L3.5267 21.6426C3.29955 21.8711 3.17206 22.1802 3.17206 22.5023C3.17206 22.8245 3.29955 23.1336 3.5267 23.3621L6.67314 26.5208C6.78652 26.6351 6.9214 26.7258 7.07001 26.7877C7.21863 26.8496 7.37803 26.8815 7.53903 26.8815C7.70002 26.8815 7.85942 26.8496 8.00804 26.7877C8.15665 26.7258 8.29154 26.6351 8.40491 26.5208L13.6368 21.2889H18.515C18.8385 21.2889 19.1487 21.1604 19.3774 20.9317C19.6061 20.703 19.7346 20.3928 19.7346 20.0693V18.8498H20.9541C21.2776 18.8498 21.5878 18.7213 21.8165 18.4926C22.0452 18.2639 22.1737 17.9537 22.1737 17.6302V16.4107H23.3932C23.7167 16.4107 24.0269 16.2822 24.2556 16.0535C24.4843 15.8248 24.6128 15.5146 24.6128 15.1911V13.9716H16.0759V15.1911C16.0759 15.838 15.8189 16.4584 15.3615 16.9158C14.9041 17.3732 14.2837 17.6302 13.6368 17.6302H11.1977C10.5508 17.6302 9.9304 17.3732 9.47298 16.9158C9.01556 16.4584 8.75858 15.838 8.75858 15.1911V11.5325L6.31947 13.9716Z" fill="#292E3D"/>
</g>
<defs>
<clipPath id="clip0_126_184">
<rect width="29.2693" height="29.2693" fill="white" transform="translate(0.22171 0.556519)"/>
</clipPath>
</defs>
</svg>
