<svg width="30" height="30" viewBox="0 0 30 30" fill="none" xmlns="http://www.w3.org/2000/svg">
<g clip-path="url(#clip0_126_171)">
<rect x="0.569214" y="12.7521" width="17.0738" height="17.0738" fill="#7595FD"/>
<path d="M23.7297 2.99561H11.5574C10.2025 2.99561 9.10608 4.09198 9.10608 5.44691V12.3215L3.37174 17.9827C3.19992 18.1526 3.08246 18.3698 3.03427 18.6066C2.98607 18.8434 3.00931 19.0892 3.10104 19.3127C3.19277 19.5363 3.34885 19.7276 3.54947 19.8623C3.75009 19.997 3.98621 20.0691 4.22787 20.0694V26.1671C4.22787 26.4906 4.35636 26.8008 4.58507 27.0295C4.81378 27.2582 5.12397 27.3867 5.44742 27.3867H24.9603C25.2837 27.3867 25.5939 27.2582 25.8226 27.0295C26.0513 26.8008 26.1798 26.4906 26.1798 26.1671V5.44569C26.1798 4.09198 25.0847 2.99561 23.7297 2.99561ZM13.8892 18.9852V24.9476H6.66697V18.1571L10.3098 14.5606L13.8892 18.223V18.9852V18.9852ZM16.4234 11.5325H13.9843V9.09337H16.4234V11.5325ZM21.3016 21.2889H18.8625V18.8498H21.3016V21.2889ZM21.3016 16.4107H18.8625V13.9716H21.3016V16.4107ZM21.3016 11.5325H18.8625V9.09337H21.3016V11.5325Z" fill="#292E3D"/>
<path d="M9.10614 18.8497H11.5452V21.2888H9.10614V18.8497Z" fill="#14171F"/>
</g>
<defs>
<clipPath id="clip0_126_171">
<rect width="29.2693" height="29.2693" fill="white" transform="translate(0.569214 0.556519)"/>
</clipPath>
</defs>
</svg>
