<svg width="30" height="30" viewBox="0 0 30 30" fill="none" xmlns="http://www.w3.org/2000/svg">
<g clip-path="url(#clip0_126_178)">
<rect x="0.5784" y="12.7521" width="17.0737" height="17.0738" fill="#7595FD"/>
<path d="M24.3597 4.21516C23.5513 4.21581 22.7762 4.53724 22.2045 5.10887C21.6329 5.68051 21.3115 6.45563 21.3108 7.26404C21.3108 7.69943 21.4059 8.11285 21.5718 8.4897L19.1876 11.1715C18.3776 10.6124 17.4168 10.313 16.4326 10.3129C15.5301 10.3129 14.696 10.5764 13.9703 11.0032L11.1971 8.23115L11.169 8.2592C11.408 7.77382 11.5544 7.23356 11.5544 6.65427C11.5544 5.93065 11.3398 5.22329 10.9378 4.62163C10.5358 4.01996 9.96437 3.55102 9.29583 3.27411C8.6273 2.99719 7.89166 2.92474 7.18195 3.06591C6.47224 3.20708 5.82033 3.55553 5.30866 4.0672C4.79699 4.57888 4.44853 5.23079 4.30736 5.9405C4.16619 6.65021 4.23865 7.38584 4.51556 8.05438C4.79248 8.72291 5.26142 9.29431 5.86308 9.69633C6.46474 10.0984 7.17211 10.3129 7.89572 10.3129C8.47501 10.3129 9.01405 10.1666 9.50066 9.92755L9.47261 9.9556L12.2459 12.7276C11.7979 13.4716 11.559 14.3227 11.5544 15.1911C11.5544 16.407 12.0178 17.5071 12.7556 18.3632L9.61286 21.5048C9.26061 21.3638 8.88491 21.2905 8.5055 21.2889C6.82496 21.2889 5.45662 22.656 5.45662 24.3378C5.45662 26.0196 6.82496 27.3867 8.5055 27.3867C10.186 27.3867 11.5544 26.0196 11.5544 24.3378C11.5544 23.9463 11.4739 23.5744 11.3385 23.2292L14.7996 19.7681C15.313 19.9511 15.857 20.0694 16.4326 20.0694C19.1229 20.0694 21.3108 17.8815 21.3108 15.1911C21.3108 14.4155 21.112 13.6923 20.7888 13.0399L23.3706 10.1337C23.6828 10.241 24.0121 10.3129 24.3597 10.3129C26.0415 10.3129 27.4086 8.94581 27.4086 7.26404C27.4086 5.58228 26.0415 4.21516 24.3597 4.21516ZM16.4326 17.6302C15.0874 17.6302 13.9935 16.5363 13.9935 15.1911C13.9935 13.846 15.0874 12.752 16.4326 12.752C17.7778 12.752 18.8717 13.846 18.8717 15.1911C18.8717 16.5363 17.7778 17.6302 16.4326 17.6302Z" fill="white"/>
</g>
<defs>
<clipPath id="clip0_126_178">
<rect width="29.2693" height="29.2693" fill="white" transform="translate(0.5784 0.556519)"/>
</clipPath>
</defs>
</svg>
